<svg xmlns="http://www.w3.org/2000/svg" version="1.1" xmlnsXlink="http://www.w3.org/1999/xlink" xmlns-svgjs="http://svgjs.dev/svgjs" width="2000" height="1247" viewBox="0 0 2000 1247"><g transform="matrix(1,0,0,1,-1.2121212121212466,0.504858299595071)"><svg viewBox="0 0 396 247" data-background-color="#ffffff" preserveAspectRatio="xMidYMid meet" height="1247" width="2000" xmlns="http://www.w3.org/2000/svg" xmlnsXlink="http://www.w3.org/1999/xlink"><g id="tight-bounds" transform="matrix(1,0,0,1,0.2400000000000091,-0.09999999999999432)"><svg viewBox="0 0 395.52 247.2" height="247.2" width="395.52"><g><svg></svg></g><g><svg viewBox="0 0 395.52 247.2" height="247.2" width="395.52"><g><path d="M55.039 247.2l31.624-54.774h3.135l-29.97 51.91h275.864l-29.97-51.91h3.135l31.624 54.774zM197.76 0l31.624 54.774-3.135 0-28.489-49.344-28.489 49.344-3.135 0z" fill="current" fill-rule="nonzero" stroke="current" stroke-width="1" stroke-linecap="butt" stroke-linejoin="miter" stroke-miterlimit="10" stroke-dasharray="" stroke-dashoffset="0" font-family="none" font-weight="none" font-size="none" text-anchor="none" style="mix-blend-mode: normal" data-fill-palette-color="tertiary"></path></g><g transform="matrix(1,0,0,1,0,74.43876079941094)"><svg viewBox="0 0 395.52 98.32247840117809" height="98.32247840117809" width="395.52"><g><svg viewBox="0 0 449.72048857009065 111.7962" height="98.32247840117809" width="395.52"><g><rect width="4.715243626559688" height="111.7962" x="123.58356970303583" y="0" fill="current" opacity="1" stroke-width="0" stroke="transparent" fill-opacity="1" class="rect-qz-0" data-fill-palette-color="primary" rx="1%" id="qz-0" data-palette-color="#5c7cfa"></rect></g><g transform="matrix(1,0,0,1,140.64238303263136,0.2780999999999949)"><svg viewBox="0 0 309.0781055374593 111.24000000000001" height="111.24000000000001" width="309.0781055374593"><g id="textblocktransform"><svg viewBox="0 0 309.0781055374593 111.24000000000001" height="111.24000000000001" width="309.0781055374593" id="textblock"><g><svg viewBox="0 0 309.0781055374593 111.24000000000001" height="111.24000000000001" width="309.0781055374593"><g transform="matrix(1,0,0,1,0,0)"><svg width="309.0781055374593" viewBox="2.2499999999999996 -35.8032461855077 280.34999999999997 96.15759534305954" height="111.24000000000001" data-palette-color="#5c7cfa"><svg></svg><svg></svg><g class="wordmark-text-0" data-fill-palette-color="primary" id="text-0"><path d="M9.8-2.45v0c0 0.7-0.25 1.283-0.75 1.75-0.5 0.467-1.1 0.7-1.8 0.7-0.7 0-1.283-0.25-1.75-0.75-0.467-0.5-0.7-1.1-0.7-1.8v0c0.067-3.067 0.017-7.99-0.15-14.77-0.167-6.787-0.183-12.147-0.05-16.08v0c0.033-0.667 0.3-1.243 0.8-1.73 0.5-0.48 1.093-0.703 1.78-0.67 0.68 0.033 1.263 0.3 1.75 0.8 0.48 0.5 0.703 1.1 0.67 1.8v0c-0.1 3.567-0.1 7.783 0 12.65v0c7.867-0.267 13.633-0.383 17.3-0.35v0c-0.033-4.533 0.05-8.667 0.25-12.4v0c0.033-0.7 0.31-1.273 0.83-1.72 0.513-0.453 1.12-0.663 1.82-0.63 0.7 0.033 1.277 0.307 1.73 0.82 0.447 0.52 0.653 1.13 0.62 1.83v0c-0.167 3.9-0.267 7.217-0.3 9.95v0c0 3.3 0.043 7.007 0.13 11.12 0.08 4.12 0.12 7.263 0.12 9.43v0c0 0.7-0.24 1.29-0.72 1.77-0.487 0.487-1.08 0.73-1.78 0.73-0.7 0-1.29-0.243-1.77-0.73-0.487-0.48-0.73-1.07-0.73-1.77v0c0-1.167-0.05-5.633-0.15-13.4v0c-3.6-0.033-9.35 0.083-17.25 0.35v0c0.133 5.633 0.167 10 0.1 13.1zM52.15 0.25v0c-2.467-0.167-4.617-0.667-6.45-1.5-1.833-0.833-3.233-1.883-4.2-3.15-0.967-1.267-1.667-2.433-2.1-3.5-0.433-1.067-0.7-2.127-0.8-3.18-0.1-1.047-0.05-2.403 0.15-4.07v0c0.233-1.4 0.727-2.783 1.48-4.15 0.747-1.367 1.747-2.593 3-3.68 1.247-1.08 2.753-1.913 4.52-2.5 1.767-0.58 3.65-0.753 5.65-0.52v0c1.933 0.233 3.583 0.757 4.95 1.57 1.367 0.82 2.533 1.863 3.5 3.13v0c0.833 1.067 1.343 1.867 1.53 2.4 0.18 0.533 0.347 1.033 0.5 1.5 0.147 0.467 0.27 0.867 0.37 1.2 0.1 0.333 0.193 0.673 0.28 1.02 0.08 0.353 0.137 0.763 0.17 1.23v0c0.033 0.633-0.083 1.217-0.35 1.75-0.267 0.533-0.667 0.95-1.2 1.25v0c-0.433 0.167-0.9 0.25-1.4 0.25v0l-8.55 0.15c-6 0.033-9 0.1-9 0.2v0h-0.15c0.433 1.7 1.343 3.033 2.73 4 1.38 0.967 3.27 1.533 5.67 1.7v0c1.3 0.067 2.383 0 3.25-0.2v0c0.967-0.267 1.667-0.51 2.1-0.73 0.433-0.213 0.967-0.503 1.6-0.87v0c0.633-0.233 1.267-0.2 1.9 0.1 0.633 0.3 1.067 0.767 1.3 1.4 0.233 0.633 0.21 1.25-0.07 1.85-0.287 0.6-0.73 1.067-1.33 1.4v0c-0.533 0.3-1.083 0.557-1.65 0.77-0.567 0.22-1.4 0.48-2.5 0.78-1.1 0.3-2.733 0.433-4.9 0.4zM44.15-15.25v0c1.933-0.1 6.95-0.2 15.05-0.3v0c-0.3-1-0.783-1.95-1.45-2.85v0c-1.333-1.533-2.983-2.417-4.95-2.65v0c-2.067-0.267-3.883 0.173-5.45 1.32-1.567 1.153-2.633 2.647-3.2 4.48zM83.35-0.8v0c-1.2 0.467-2.557 0.733-4.07 0.8-1.52 0.067-2.93-0.11-4.23-0.53-1.3-0.413-2.45-1.053-3.45-1.92v0c-1.733-1.433-2.85-3.217-3.35-5.35-0.5-2.133-0.517-4.05-0.05-5.75 0.467-1.7 1.177-3.36 2.13-4.98 0.947-1.613 1.977-2.98 3.09-4.1 1.12-1.113 2.413-2.053 3.88-2.82 1.467-0.767 3-1.143 4.6-1.13 1.6 0.02 3.283 0.463 5.05 1.33v0c0.267 0.133 0.56 0.333 0.88 0.6 0.313 0.267 0.587 0.5 0.82 0.7v0l0.65 0.65c0.2 0.2 0.3 0.317 0.3 0.35v0c0.533 0.467 0.817 1.067 0.85 1.8v0c0.433 2 0.717 4.1 0.85 6.3 0.133 2.2 0.177 4.267 0.13 6.2-0.053 1.933-0.03 3.983 0.07 6.15v0c0.033 0.667-0.183 1.25-0.65 1.75-0.467 0.5-1.05 0.767-1.75 0.8-0.7 0.033-1.3-0.183-1.8-0.65-0.5-0.467-0.767-1.033-0.8-1.7v0-0.75c-1 1.033-2.05 1.783-3.15 2.25zM81.1-5.3v0c0.5-0.133 0.9-0.267 1.2-0.4 0.3-0.133 0.677-0.333 1.13-0.6 0.447-0.267 0.92-0.6 1.42-1 0.5-0.4 0.95-0.9 1.35-1.5v0c0.067-0.067 0.15-0.133 0.25-0.2v0c0-4.5-0.283-8.117-0.85-10.85v0c-0.1-0.133-0.207-0.26-0.32-0.38-0.12-0.113-0.203-0.203-0.25-0.27-0.053-0.067-0.12-0.127-0.2-0.18-0.087-0.047-0.18-0.103-0.28-0.17v0c-1.6-0.867-3.283-0.893-5.05-0.08-1.767 0.82-3.317 2.347-4.65 4.58v0c-1.333 2.267-1.99 4.24-1.97 5.92 0.013 1.687 0.653 3.08 1.92 4.18v0c0.767 0.633 1.717 1.033 2.85 1.2 1.133 0.167 2.283 0.083 3.45-0.25zM102.75 7.55v0c0 0.7-0.25 1.283-0.75 1.75-0.5 0.467-1.1 0.7-1.8 0.7-0.7 0-1.283-0.25-1.75-0.75-0.467-0.5-0.7-1.1-0.7-1.8v0c0.133-6.567 0.2-17.05 0.2-31.45v0c0-0.7 0.24-1.293 0.72-1.78 0.487-0.48 1.08-0.72 1.78-0.72v0c0.5 0 0.96 0.223 1.38 0.67 0.413 0.453 0.72 1.013 0.92 1.68v0l0.7-0.45c2-1.2 3.983-1.85 5.95-1.95 1.967-0.1 3.733 0.333 5.3 1.3v0c1.467 0.833 2.707 2 3.72 3.5 1.02 1.5 1.763 3.133 2.23 4.9v0c0.367 1.267 0.567 2.617 0.6 4.05 0.033 1.433-0.15 2.767-0.55 4-0.4 1.233-0.983 2.45-1.75 3.65-0.767 1.2-1.843 2.25-3.23 3.15-1.38 0.9-2.97 1.517-4.77 1.85v0c-3.1 0.567-5.783 0.033-8.05-1.6v0c-0.033 3.1-0.083 6.2-0.15 9.3zM110.05-5.05v0c2.533-0.467 4.31-1.677 5.33-3.63 1.013-1.947 1.17-4.237 0.47-6.87v0c-0.7-2.6-1.917-4.383-3.65-5.35v0c-1.767-1.033-3.817-0.833-6.15 0.6v0c-1.067 0.633-1.683 1.05-1.85 1.25v0c-0.1 0.1-0.183 0.19-0.25 0.27-0.067 0.087-0.183 0.28-0.35 0.58v0l-0.65 0.9v8.2c0.167 0.167 0.3 0.35 0.4 0.55v0c0.933 1.467 1.917 2.483 2.95 3.05 1.033 0.567 2.283 0.717 3.75 0.45z" fill="current" fill-rule="nonzero" stroke="current" stroke-width="1" stroke-linecap="butt" stroke-linejoin="miter" stroke-miterlimit="10" stroke-dasharray="" stroke-dashoffset="0" font-family="none" font-weight="none" font-size="none" text-anchor="none" style="mix-blend-mode: normal" data-fill-palette-color="primary" opacity="1"></path><path transform="translate(0,50.05)" d="M20 0.4v0c-1.833 0-3.633-0.233-5.4-0.7-1.767-0.467-3.3-1.117-4.6-1.95v0c-1.467-0.933-2.79-2.25-3.97-3.95-1.187-1.7-2.113-3.56-2.78-5.58-0.667-2.013-1-3.953-1-5.82v0c0-2.5 0.533-4.933 1.6-7.3 1.067-2.367 2.567-4.517 4.5-6.45v0c1.467-1.467 3.117-2.6 4.95-3.4v0c2.167-0.9 4.35-1.35 6.55-1.35v0c1.9 0 3.8 0.367 5.7 1.1v0c1.233 0.467 2.283 1.057 3.15 1.77 0.867 0.72 1.817 1.663 2.85 2.83v0l1.5 1.85c0.4 0.5 0.6 1.017 0.6 1.55v0c0 0.667-0.267 1.25-0.8 1.75-0.533 0.5-1.15 0.75-1.85 0.75v0c-0.7 0-1.317-0.317-1.85-0.95v0l-1.85-2.25c-0.467-0.5-1.017-0.993-1.65-1.48-0.633-0.48-1.267-0.853-1.9-1.12v0c-1.433-0.6-2.867-0.85-4.3-0.75v0c-3.033 0.267-5.583 1.383-7.65 3.35v0c-3.033 2.933-4.55 6.3-4.55 10.1v0c0 2.033 0.543 4.157 1.63 6.37 1.08 2.22 2.353 3.813 3.82 4.78v0c0.9 0.567 1.983 1.017 3.25 1.35 1.267 0.333 2.567 0.5 3.9 0.5v0c4.033 0 6.667-1.117 7.9-3.35v0c0.233-0.4 0.517-1.167 0.85-2.3v0l0.5-1.6c0.2-0.533 0.51-0.95 0.93-1.25 0.413-0.3 0.853-0.45 1.32-0.45v0c0.667 0 1.267 0.233 1.8 0.7 0.533 0.467 0.8 1.067 0.8 1.8v0c0 0.3-0.05 0.6-0.15 0.9v0l-0.35 1.05c-0.567 1.733-1 2.917-1.3 3.55v0c-1.033 1.8-2.483 3.183-4.35 4.15-1.867 0.967-4 1.55-6.4 1.75v0c-0.3 0.033-0.767 0.05-1.4 0.05zM52.4-0.35v0c-4.4 1.067-7.917 0.183-10.55-2.65v0c-2.1-2.167-3.4-4.95-3.9-8.35v0c-0.367-2.667-0.05-5.2 0.95-7.6v0c1.2-3.067 3.1-5.333 5.7-6.8v0c0.533-0.3 1.2-0.517 2-0.65v0c0.033 0 0.267-0.017 0.7-0.05v0c0.167-0.033 0.3-0.067 0.4-0.1v0c0.5-0.1 1-0.05 1.5 0.15v0c0.133 0 0.45 0.007 0.95 0.02 0.5 0.02 0.833 0.037 1 0.05 0.167 0.02 0.46 0.053 0.88 0.1 0.413 0.053 0.753 0.113 1.02 0.18v0l0.95 0.35c0.4 0.133 0.783 0.3 1.15 0.5 0.367 0.2 0.767 0.433 1.2 0.7v0c2.167 1.467 3.667 3.527 4.5 6.18 0.833 2.647 1.05 4.787 0.65 6.42v0c-0.3 1.8-0.833 3.473-1.6 5.02-0.767 1.553-1.823 2.93-3.17 4.13-1.353 1.2-2.797 2-4.33 2.4zM50.85-5.55v0c1.433-0.2 2.66-0.943 3.68-2.23 1.013-1.28 1.68-2.637 2-4.07 0.313-1.433 0.197-3.007-0.35-4.72-0.553-1.72-1.43-2.963-2.63-3.73v0c-0.367-0.267-0.667-0.46-0.9-0.58-0.233-0.113-0.507-0.213-0.82-0.3-0.32-0.08-0.57-0.12-0.75-0.12-0.187 0-0.58-0.017-1.18-0.05-0.6-0.033-1.133-0.067-1.6-0.1v0c-0.1 0-0.217-0.017-0.35-0.05v0c-0.367 0.033-0.567 0.05-0.6 0.05v0l-0.35 0.1c-1.467 0.8-2.59 2.073-3.37 3.82-0.787 1.753-1.013 3.563-0.68 5.43v0c0.367 2.267 1.183 3.983 2.45 5.15v0c1.367 1.267 3.183 1.733 5.45 1.4zM69.85 0v0c-0.667 0-1.25-0.227-1.75-0.68-0.5-0.447-0.75-1.053-0.75-1.82v0c0-2.633-0.017-4.9-0.05-6.8v0c-0.067-5.667-0.1-10.583-0.1-14.75v0c0-0.767 0.233-1.367 0.7-1.8 0.467-0.433 1.033-0.65 1.7-0.65v0c0.7 0 1.307 0.223 1.82 0.67 0.52 0.453 0.78 1.08 0.78 1.88v0 1.55c2.067-2.7 4.783-4.05 8.15-4.05v0c2.9 0 5.127 1.017 6.68 3.05 1.547 2.033 2.32 4.767 2.32 8.2v0c0 3.8-0.05 6.3-0.15 7.5v0l-0.25 3.35-0.15 2.15c-0.067 0.667-0.333 1.2-0.8 1.6-0.467 0.4-1.017 0.6-1.65 0.6v0c-0.667 0-1.25-0.227-1.75-0.68-0.5-0.447-0.75-1.053-0.75-1.82v0c0-0.533 0.117-2.383 0.35-5.55v0c0.167-2.167 0.25-3.867 0.25-5.1v0c0-2.833-0.4-4.927-1.2-6.28-0.8-1.347-2.033-2.02-3.7-2.02v0c-1.2 0-2.44 0.367-3.72 1.1-1.287 0.733-2.497 1.667-3.63 2.8v0l0.1 7.1 0.05 7.95c0 0.767-0.25 1.373-0.75 1.82-0.5 0.453-1.083 0.68-1.75 0.68zM99.25 0v0c-0.6 0-1.117-0.183-1.55-0.55-0.433-0.367-0.683-0.9-0.75-1.6v0c-0.533-4.367-0.833-9.367-0.9-15v0l-0.05-3.75h-0.4c-0.833 0-1.473-0.243-1.92-0.73-0.453-0.48-0.68-1.087-0.68-1.82v0c0-0.667 0.2-1.26 0.6-1.78 0.4-0.513 0.967-0.77 1.7-0.77v0h0.9c0-1.967 0.293-3.86 0.88-5.68 0.58-1.813 1.437-3.037 2.57-3.67v0c1.133-0.6 2.2-0.9 3.2-0.9v0c1.4 0 2.517 0.25 3.35 0.75 0.833 0.5 1.25 1.217 1.25 2.15v0c0 0.767-0.183 1.383-0.55 1.85-0.367 0.467-0.883 0.7-1.55 0.7v0c-0.2 0-0.39-0.017-0.57-0.05-0.187-0.033-0.363-0.067-0.53-0.1v0c-0.467-0.133-0.95-0.2-1.45-0.2v0c-0.567 0-0.95 0.457-1.15 1.37-0.2 0.92-0.35 2.18-0.45 3.78v0h2.15c0.767 0 1.377 0.25 1.83 0.75 0.447 0.5 0.67 1.083 0.67 1.75v0c0 0.667-0.223 1.25-0.67 1.75-0.453 0.5-1.063 0.75-1.83 0.75v0h-2.35l0.05 3.8c0.3 7.4 0.567 12.117 0.8 14.15v0c0.1 1.1-0.117 1.883-0.65 2.35-0.533 0.467-1.183 0.7-1.95 0.7zM110.25-2.4v0c-0.067-2.5-0.057-6.333 0.03-11.5 0.08-5.167 0.12-8.55 0.12-10.15v0c0-0.7 0.243-1.293 0.73-1.78 0.48-0.48 1.07-0.72 1.77-0.72 0.7 0 1.293 0.24 1.78 0.72 0.48 0.487 0.72 1.08 0.72 1.78v0c0 1.6-0.04 4.967-0.12 10.1-0.087 5.133-0.097 8.95-0.03 11.45v0c0 0.7-0.233 1.3-0.7 1.8-0.467 0.5-1.05 0.75-1.75 0.75-0.7 0-1.3-0.233-1.8-0.7-0.5-0.467-0.75-1.05-0.75-1.75zM114.9-35.2v0c0.567 0.567 0.85 1.267 0.85 2.1 0 0.833-0.283 1.533-0.85 2.1-0.567 0.567-1.267 0.85-2.1 0.85-0.833 0-1.533-0.283-2.1-0.85-0.567-0.567-0.85-1.267-0.85-2.1 0-0.833 0.283-1.533 0.85-2.1 0.567-0.567 1.277-0.86 2.13-0.88 0.847-0.013 1.537 0.28 2.07 0.88zM133.25 10.25v0c-1.933 0.167-3.79-0.05-5.57-0.65-1.787-0.6-3.263-1.65-4.43-3.15v0c-0.433-0.567-0.79-1.267-1.07-2.1-0.287-0.833-0.263-1.557 0.07-2.17 0.333-0.62 0.827-1.03 1.48-1.23 0.647-0.2 1.28-0.133 1.9 0.2 0.613 0.333 1.02 0.817 1.22 1.45v0c0.067 0.267 0.15 0.627 0.25 1.08 0.1 0.447 0.467 0.887 1.1 1.32v0c1.5 0.533 3.15 0.767 4.95 0.7v0c1.633-0.067 2.883-0.41 3.75-1.03 0.867-0.613 1.417-1.32 1.65-2.12v0c0.333-1.133 0.6-2.933 0.8-5.4v0c-1.267 1.333-3.183 2.133-5.75 2.4v0c-2.2 0.1-4.173-0.21-5.92-0.93-1.753-0.713-3.137-1.737-4.15-3.07-1.02-1.333-1.763-2.817-2.23-4.45v0c-0.467-1.567-0.633-3.533-0.5-5.9v0c0.267-3.667 1.7-6.617 4.3-8.85v0c2.9-2.3 6.4-3.117 10.5-2.45v0c1.5 0.5 2.683 1.1 3.55 1.8v0c0.033-1.333 0.667-2.15 1.9-2.45v0c0.8-0.067 1.443 0.117 1.93 0.55 0.48 0.433 0.77 0.983 0.87 1.65v0c0.367 4.067 0.583 9.033 0.65 14.9v0c0.033 3.333-0.067 6.117-0.3 8.35v0c-0.267 3.333-1.05 5.827-2.35 7.48-1.3 1.647-2.6 2.697-3.9 3.15-1.3 0.447-2.867 0.753-4.7 0.92zM133.25-5.55v0c1.233 0.033 2.183-0.117 2.85-0.45v0c1.933-0.6 3.05-2.183 3.35-4.75v0c0.167-1.967 0.083-3.85-0.25-5.65v0c-0.233-1.133-0.917-2.117-2.05-2.95v0c-0.667-0.533-1.517-0.883-2.55-1.05v0c-2.667-0.467-4.717-0.067-6.15 1.2v0c-1.367 1.1-2.15 2.717-2.35 4.85v0c-0.167 2.8 0.383 4.983 1.65 6.55v0c1.3 1.533 3.133 2.283 5.5 2.25zM169.2 0v0c-0.6-0.033-1.123-0.267-1.57-0.7-0.453-0.433-0.713-1.167-0.78-2.2v0c-1.533 1.333-3.117 2.2-4.75 2.6v0c-2.333 0.6-4.467 0.217-6.4-1.15v0c-1.867-1.333-3.333-3.533-4.4-6.6v0c-0.367-1.067-0.65-2.167-0.85-3.3v0c-0.2-1.167-0.29-2.41-0.27-3.73 0.013-1.313 0.037-2.38 0.07-3.2 0.033-0.813 0.117-1.93 0.25-3.35 0.133-1.413 0.217-2.303 0.25-2.67v0c0.067-0.667 0.36-1.227 0.88-1.68 0.513-0.447 1.113-0.647 1.8-0.6 0.68 0.053 1.247 0.337 1.7 0.85 0.447 0.52 0.653 1.13 0.62 1.83v0c-0.033 0.5-0.123 1.45-0.27 2.85-0.153 1.4-0.237 2.44-0.25 3.12-0.02 0.687-0.037 1.587-0.05 2.7-0.02 1.12 0.047 2.12 0.2 3 0.147 0.887 0.353 1.747 0.62 2.58v0c0.733 2.033 1.667 3.417 2.8 4.15v0c0.467 0.3 1.233 0.45 2.3 0.45v0c1.433-0.233 2.593-0.65 3.48-1.25 0.88-0.6 1.703-1.967 2.47-4.1v0c0.067-4.433 0.017-8.933-0.15-13.5v0c-0.033-0.7 0.193-1.3 0.68-1.8 0.48-0.5 1.063-0.767 1.75-0.8 0.68-0.033 1.27 0.19 1.77 0.67 0.5 0.487 0.767 1.063 0.8 1.73v0c0.267 7.867 0.25 15.117-0.05 21.75v0c-0.033 0.667-0.307 1.233-0.82 1.7-0.52 0.467-1.13 0.683-1.83 0.65zM181.25 0v0c-0.667 0-1.25-0.227-1.75-0.68-0.5-0.447-0.75-1.053-0.75-1.82v0l-0.1-10.2c-0.033-2.3-0.05-5.167-0.05-8.6v0-2.95c0-0.767 0.233-1.367 0.7-1.8 0.467-0.433 1.033-0.65 1.7-0.65v0c0.7 0 1.31 0.223 1.83 0.67 0.513 0.453 0.77 1.08 0.77 1.88v0 1.5c0.367-0.8 1.05-1.483 2.05-2.05v0c1.367-0.833 2.867-1.25 4.5-1.25v0c1.233 0 2.183 0.2 2.85 0.6 0.667 0.4 1 1.117 1 2.15v0c0 0.667-0.2 1.223-0.6 1.67-0.4 0.453-0.983 0.68-1.75 0.68v0c-2.8 0-4.733 0.383-5.8 1.15v0c-0.6 0.4-1.123 0.883-1.57 1.45-0.453 0.567-0.68 1.117-0.68 1.65v0l0.1 6.25 0.05 7.85c0 0.767-0.25 1.373-0.75 1.82-0.5 0.453-1.083 0.68-1.75 0.68zM209.55-0.8v0c-1.2 0.467-2.557 0.733-4.07 0.8-1.52 0.067-2.93-0.11-4.23-0.53-1.3-0.413-2.45-1.053-3.45-1.92v0c-1.733-1.433-2.85-3.217-3.35-5.35-0.5-2.133-0.517-4.05-0.05-5.75 0.467-1.7 1.177-3.36 2.13-4.98 0.947-1.613 1.98-2.98 3.1-4.1 1.113-1.113 2.403-2.053 3.87-2.82 1.467-0.767 3-1.143 4.6-1.13 1.6 0.02 3.283 0.463 5.05 1.33v0c0.267 0.133 0.56 0.333 0.88 0.6 0.313 0.267 0.587 0.5 0.82 0.7v0l0.65 0.65c0.2 0.2 0.3 0.317 0.3 0.35v0c0.533 0.467 0.817 1.067 0.85 1.8v0c0.433 2 0.717 4.1 0.85 6.3 0.133 2.2 0.177 4.267 0.13 6.2-0.053 1.933-0.03 3.983 0.07 6.15v0c0.033 0.667-0.183 1.25-0.65 1.75-0.467 0.5-1.05 0.767-1.75 0.8-0.7 0.033-1.3-0.183-1.8-0.65-0.5-0.467-0.767-1.033-0.8-1.7v0-0.75c-1 1.033-2.05 1.783-3.15 2.25zM207.3-5.3v0c0.5-0.133 0.9-0.267 1.2-0.4 0.3-0.133 0.677-0.333 1.13-0.6 0.447-0.267 0.92-0.6 1.42-1 0.5-0.4 0.95-0.9 1.35-1.5v0c0.067-0.067 0.15-0.133 0.25-0.2v0c0-4.5-0.283-8.117-0.85-10.85v0c-0.1-0.133-0.207-0.26-0.32-0.38-0.12-0.113-0.203-0.203-0.25-0.27-0.053-0.067-0.12-0.127-0.2-0.18-0.087-0.047-0.18-0.103-0.28-0.17v0c-1.6-0.867-3.283-0.893-5.05-0.08-1.767 0.82-3.317 2.347-4.65 4.58v0c-1.333 2.267-1.99 4.24-1.97 5.92 0.013 1.687 0.653 3.08 1.92 4.18v0c0.767 0.633 1.717 1.033 2.85 1.2 1.133 0.167 2.283 0.083 3.45-0.25zM232.25-0.15v0c-0.2-0.067-0.607-0.167-1.22-0.3-0.62-0.133-1.153-0.283-1.6-0.45-0.453-0.167-0.97-0.41-1.55-0.73-0.587-0.313-1.113-0.747-1.58-1.3-0.467-0.547-0.867-1.203-1.2-1.97v0c-0.367-0.9-0.6-2.667-0.7-5.3v0c-0.1-2.033-0.117-4.65-0.05-7.85v0c0-0.6 0.017-1.6 0.05-3v0l-0.4 0.05c-0.7 0.067-1.317-0.117-1.85-0.55-0.533-0.433-0.84-0.993-0.92-1.68-0.087-0.68 0.087-1.287 0.52-1.82 0.433-0.533 0.983-0.85 1.65-0.95v0l1.15-0.1c0.033-1.767 0.083-3.55 0.15-5.35v0c0.033-0.7 0.3-1.283 0.8-1.75 0.5-0.467 1.1-0.683 1.8-0.65 0.7 0.033 1.283 0.3 1.75 0.8 0.467 0.5 0.683 1.1 0.65 1.8v0l-0.15 4.75 1.65-0.1c0.7-0.033 1.31 0.167 1.83 0.6 0.513 0.433 0.797 1 0.85 1.7 0.047 0.7-0.147 1.307-0.58 1.82-0.433 0.52-1 0.813-1.7 0.88v0l-2.2 0.1c-0.033 1.6-0.05 2.767-0.05 3.5v0c-0.067 3.133-0.05 5.683 0.05 7.65v0c0.067 2 0.167 3.15 0.3 3.45 0.133 0.3 0.233 0.507 0.3 0.62 0.067 0.12 0.193 0.237 0.38 0.35 0.18 0.12 0.37 0.197 0.57 0.23 0.2 0.033 0.577 0.123 1.13 0.27 0.547 0.153 1.137 0.347 1.77 0.58v0c0.633 0.2 1.11 0.607 1.43 1.22 0.313 0.62 0.363 1.253 0.15 1.9-0.22 0.653-0.637 1.137-1.25 1.45-0.62 0.32-1.263 0.363-1.93 0.13zM252.4-0.35v0c-4.4 1.067-7.917 0.183-10.55-2.65v0c-2.1-2.167-3.4-4.95-3.9-8.35v0c-0.367-2.667-0.05-5.2 0.95-7.6v0c1.2-3.067 3.1-5.333 5.7-6.8v0c0.533-0.3 1.2-0.517 2-0.65v0c0.033 0 0.267-0.017 0.7-0.05v0c0.167-0.033 0.3-0.067 0.4-0.1v0c0.5-0.1 1-0.05 1.5 0.15v0c0.133 0 0.45 0.007 0.95 0.02 0.5 0.02 0.833 0.037 1 0.05 0.167 0.02 0.46 0.053 0.88 0.1 0.413 0.053 0.753 0.113 1.02 0.18v0l0.95 0.35c0.4 0.133 0.783 0.3 1.15 0.5 0.367 0.2 0.767 0.433 1.2 0.7v0c2.167 1.467 3.667 3.527 4.5 6.18 0.833 2.647 1.05 4.787 0.65 6.42v0c-0.3 1.8-0.833 3.473-1.6 5.02-0.767 1.553-1.823 2.93-3.17 4.13-1.353 1.2-2.797 2-4.33 2.4zM250.85-5.55v0c1.433-0.2 2.66-0.943 3.68-2.23 1.013-1.28 1.68-2.637 2-4.07 0.313-1.433 0.197-3.007-0.35-4.72-0.553-1.72-1.43-2.963-2.63-3.73v0c-0.367-0.267-0.667-0.46-0.9-0.58-0.233-0.113-0.507-0.213-0.82-0.3-0.32-0.08-0.57-0.12-0.75-0.12-0.187 0-0.58-0.017-1.18-0.05-0.6-0.033-1.133-0.067-1.6-0.1v0c-0.1 0-0.217-0.017-0.35-0.05v0c-0.367 0.033-0.567 0.05-0.6 0.05v0l-0.35 0.1c-1.467 0.8-2.59 2.073-3.37 3.82-0.787 1.753-1.013 3.563-0.68 5.43v0c0.367 2.267 1.183 3.983 2.45 5.15v0c1.367 1.267 3.183 1.733 5.45 1.4zM269.85 0v0c-0.667 0-1.25-0.227-1.75-0.68-0.5-0.447-0.75-1.053-0.75-1.82v0l-0.1-10.2c-0.033-2.3-0.05-5.167-0.05-8.6v0-2.95c0-0.767 0.233-1.367 0.7-1.8 0.467-0.433 1.033-0.65 1.7-0.65v0c0.7 0 1.31 0.223 1.83 0.67 0.513 0.453 0.77 1.08 0.77 1.88v0 1.5c0.367-0.8 1.05-1.483 2.05-2.05v0c1.367-0.833 2.867-1.25 4.5-1.25v0c1.233 0 2.183 0.2 2.85 0.6 0.667 0.4 1 1.117 1 2.15v0c0 0.667-0.2 1.223-0.6 1.67-0.4 0.453-0.983 0.68-1.75 0.68v0c-2.8 0-4.733 0.383-5.8 1.15v0c-0.6 0.4-1.123 0.883-1.57 1.45-0.453 0.567-0.68 1.117-0.68 1.65v0l0.1 6.25 0.05 7.85c0 0.767-0.25 1.373-0.75 1.82-0.5 0.453-1.083 0.68-1.75 0.68z" fill="current" fill-rule="nonzero" stroke="current" stroke-width="1" stroke-linecap="butt" stroke-linejoin="miter" stroke-miterlimit="10" stroke-dasharray="" stroke-dashoffset="0" font-family="none" font-weight="none" font-size="none" text-anchor="none" style="mix-blend-mode: normal" data-fill-palette-color="primary" opacity="1"></path></g></svg></g></svg></g></svg></g></svg></g><g transform="matrix(1,0,0,1,0,0.2780999999999949)"><svg viewBox="0 0 111.24000000000001 111.24000000000001" height="111.24000000000001" width="111.24000000000001"><g><svg xmlns="http://www.w3.org/2000/svg" xmlnsXlink="http://www.w3.org/1999/xlink" version="1.1" x="0" y="0" viewBox="0 0 24 24" style="enable-background:new 0 0 24 24;" xml:space="preserve" height="111.24000000000001" width="111.24000000000001" class="icon-icon-0" data-fill-palette-color="accent" id="icon-0"><g fill="#5c7cfa" data-fill-palette-color="accent"><path d="M22.004 18H1.996C0.896 18 0 17.104 0 16.004V1.996C0 0.896 0.896 0 1.996 0h20.008C23.104 0 24 0.896 24 1.996v14.008C24 17.104 23.104 18 22.004 18zM1.996 1C1.447 1 1 1.447 1 1.996v14.008C1 16.553 1.447 17 1.996 17h20.008C22.553 17 23 16.553 23 16.004V1.996C23 1.447 22.553 1 22.004 1H1.996z" fill="current" data-fill-palette-color="accent"></path><rect x="2" y="20" width="20" height="1" fill="current" data-fill-palette-color="accent"></rect><rect x="4" y="23" width="16" height="1" fill="current" data-fill-palette-color="accent"></rect></g></svg></g></svg></g></svg></g></svg></g></svg></g><defs></defs></svg><rect width="395.52" height="247.2" fill="current" stroke="current" visibility="hidden"></rect></g></svg></g></svg>